<?xml version="1.0" standalone="no"?>
<svg id="Group24" width="386" height="90" viewBox="0 0 386 90" fill="none" xmlns="http://www.w3.org/2000/svg" style="max-width: 100%; max-height: 100%;">
<path opacity="0.2" d="M385.5 73C385.5 74.3489 384.891 75.6138 383.645 76.8128C382.392 78.019 380.515 79.1359 378.048 80.1596C373.117 82.2065 365.954 83.8296 357.078 85.1006C339.337 87.6411 314.891 88.7566 288.099 89.1127C255.425 89.5471 219.33 88.8527 187.702 88.2442C167.444 87.8545 149.019 87.5 134.5 87.5C97.3969 87.5 63.8268 82.5795 39.5496 74.6375C27.4083 70.6656 17.619 65.9469 10.8756 60.7313C4.12538 55.5104 0.5 49.8522 0.5 44C0.5 38.1478 4.12538 32.4896 10.8756 27.2687C17.619 22.0531 27.4083 17.3344 39.5496 13.3625C63.8268 5.42055 97.3969 0.5 134.5 0.5C171.571 0.5 234.392 12.6595 287.969 27.8683C314.753 35.4713 339.201 43.8292 356.944 51.7981C365.819 55.7838 372.995 59.6627 377.945 63.2897C380.42 65.1035 382.32 66.8412 383.597 68.4826C384.876 70.127 385.5 71.6348 385.5 73Z" stroke="#398CD0" stroke-dasharray="0,0,0,818.4591674804688"><animate attributeType="XML" attributeName="stroke-dasharray" repeatCount="1" dur="2.5s" values="0,0,0,818.4591674804688; 
          0,409.2295837402344,409.2295837402344,0; 
          818.4591674804688,0,0,0" keyTimes="0; 0.5; 1" fill="freeze"></animate></path>
<path opacity="0.2" d="M371.5 44C371.5 49.8522 367.875 55.5104 361.124 60.7313C354.381 65.9469 344.592 70.6656 332.45 74.6375C308.173 82.5795 274.603 87.5 237.5 87.5C200.392 87.5 147.047 82.5784 102.983 74.6207C80.9489 70.6414 61.2588 65.907 47.0871 60.6579C39.9981 58.0322 34.3186 55.288 30.4205 52.4627C26.5023 49.6227 24.5 46.7872 24.5 44C24.5 41.2128 26.5023 38.3773 30.4205 35.5373C34.3186 32.712 39.9981 29.9678 47.0871 27.3421C61.2588 22.0931 80.9489 17.3586 102.983 13.3793C147.047 5.42158 200.392 0.5 237.5 0.5C274.603 0.5 308.173 5.42055 332.45 13.3625C344.592 17.3344 354.381 22.0531 361.124 27.2687C367.875 32.4896 371.5 38.1478 371.5 44Z" stroke="#398CD0" stroke-dasharray="0,0,0,741.77880859375"><animate attributeType="XML" attributeName="stroke-dasharray" repeatCount="1" dur="2.5s" values="0,0,0,741.77880859375; 
          0,370.889404296875,370.889404296875,0; 
          741.77880859375,0,0,0" keyTimes="0; 0.5; 1" fill="freeze"></animate></path>
</svg>